<?xml version="1.0" encoding="UTF-8" standalone="no"?>
<!DOCTYPE svg PUBLIC "-//W3C//DTD SVG 1.1//EN" "http://www.w3.org/Graphics/SVG/1.1/DTD/svg11.dtd">
<svg width="100%" height="100%" viewBox="0 0 694 353" version="1.1" xmlns="http://www.w3.org/2000/svg" xmlns:xlink="http://www.w3.org/1999/xlink" xml:space="preserve" xmlns:serif="http://www.serif.com/" style="fill-rule:evenodd;clip-rule:evenodd;stroke-linejoin:round;stroke-miterlimit:1.41421;">
    <g transform="matrix(1,0,0,1,-204.943,-280.015)">
        <g transform="matrix(0.573676,0,0,0.573676,114.354,175.549)">
            <g transform="matrix(4.16667,0,0,4.16667,746.302,424.996)">
                <path d="M0,-4.766C-4.831,-6.407 -9.221,-8.392 -14.995,-7.755C-15.85,-7.66 -16.836,-7.42 -17.893,-7.083C-12.216,-0.527 -3.837,3.626 5.516,3.626C14.847,3.626 23.208,-0.507 28.884,-7.037C25.471,-5.168 21.281,-3.177 18.151,-2.674C11.877,-1.664 4.83,-3.125 0,-4.766" style="fill:rgb(29,104,155);fill-rule:nonzero;"/>
            </g>
            <g transform="matrix(4.16667,0,0,4.16667,868.318,213.608)">
                <path d="M0,37.912L-14.62,37.912L-14.62,37.748C-13.678,36.811 -12.68,35.322 -12.847,33.835L-14.841,14.491L-15.007,14.491L-22.205,38.52C-24.088,38.078 -25.861,37.032 -27.466,35.983C-30.068,34.276 -30.732,31.96 -31.786,29.151L-37.211,14.491L-37.377,14.491L-39.259,33.504C-39.426,35.377 -38.43,36.921 -36.824,37.748L-36.824,37.912L-47.731,37.912L-47.731,37.748C-45.296,35.764 -45.184,33.008 -44.853,30.031L-42.195,6.885C-41.973,4.792 -42.804,3.138 -44.298,1.815L-44.298,1.652L-31.563,1.652L-31.563,1.815L-23.368,22.923L-16.945,1.815L-16.945,1.652L-3.711,1.652L-3.711,1.815C-5.04,3.027 -5.871,3.578 -5.649,5.564L-3.047,29.426C-2.716,32.511 -2.438,35.599 0,37.748L0,37.912ZM-26.894,-3.01L-24.244,-4.335L-21.594,-3.01L-17.074,-3.01C-17.73,-1.885 -19.188,-1.645 -19.71,0.828L-24.256,0.828L-28.802,0.828C-29.324,-1.645 -30.783,-1.885 -31.438,-3.01L-26.894,-3.01ZM-23.768,-7.562C-40.867,-7.562 -54.729,6.299 -54.729,23.399C-54.729,29.792 -52.79,35.732 -49.469,40.665C-47.87,40.069 -46.353,39.629 -45.076,39.475C-38.937,38.739 -33.931,40.645 -28.183,42.566C-22.434,44.489 -17.902,45.474 -11.929,44.556C-6.989,43.797 1.27,38.828 3.981,37.13C6.033,32.991 7.193,28.331 7.193,23.399C7.193,6.299 -6.669,-7.562 -23.768,-7.562" style="fill:rgb(29,104,155);fill-rule:nonzero;"/>
            </g>
            <g transform="matrix(4.16667,0,0,4.16667,198.164,526.829)">
                <path d="M0,27.715L2.059,27.715L2.059,1.9L11.719,1.9L11.719,0L-9.661,0L-9.661,1.9L0,1.9L0,27.715Z" style="fill:rgb(29,104,155);fill-rule:nonzero;"/>
            </g>
            <g transform="matrix(4.16667,0,0,4.16667,273.06,526.829)">
                <path d="M0,27.715L2.059,27.715L2.059,16.233L11.125,16.233L19.954,27.715L22.568,27.715L13.422,15.877C18.094,15.243 21.538,12.59 21.538,7.958L21.538,7.879C21.538,5.899 20.746,4.038 19.44,2.732C17.777,1.069 15.045,0 11.64,0L0,0L0,27.715ZM2.059,14.372L2.059,1.9L11.521,1.9C16.549,1.9 19.479,4.236 19.479,7.958L19.479,8.037C19.479,12.036 16.035,14.372 11.402,14.372L2.059,14.372Z" style="fill:rgb(29,104,155);fill-rule:nonzero;"/>
            </g>
            <g transform="matrix(4.16667,0,0,4.16667,392.331,526.829)">
                <path d="M0,27.715L19.915,27.715L19.915,25.814L2.059,25.814L2.059,14.689L17.936,14.689L17.936,12.788L2.059,12.788L2.059,1.9L19.717,1.9L19.717,0L0,0L0,27.715Z" style="fill:rgb(29,104,155);fill-rule:nonzero;"/>
            </g>
            <g transform="matrix(4.16667,0,0,4.16667,502.86,526.829)">
                <path d="M0,27.715L1.98,27.715L1.98,3.088L21.499,27.715L23.043,27.715L23.043,0L21.063,0L21.063,24.112L1.94,0L0,0L0,27.715Z" style="fill:rgb(29,104,155);fill-rule:nonzero;"/>
            </g>
            <g transform="matrix(4.16667,0,0,4.16667,685.481,496.804)">
                <path d="M0,35.396C4.91,35.396 8.077,33.456 11.007,30.566L9.621,29.219C6.81,31.991 4.078,33.535 0.079,33.535C-6.533,33.535 -11.64,28.071 -11.64,21.063L-11.64,20.984C-11.64,14.016 -6.612,8.592 0.04,8.592C4.197,8.592 6.968,10.334 9.383,12.67L10.848,11.165C7.998,8.552 5.028,6.731 0.079,6.731C-7.918,6.731 -13.778,13.224 -13.778,21.063L-13.778,21.143C-13.778,29.101 -7.918,35.396 0,35.396M4.87,0L2.811,0L-0.079,2.415L-2.969,0L-5.107,0L-1.029,4.237L0.792,4.237L4.87,0Z" style="fill:rgb(29,104,155);fill-rule:nonzero;"/>
            </g>
            <g transform="matrix(4.16667,0,0,4.16667,-1357.34,-808.394)">
                <rect x="507.224" y="320.454" width="2.058" height="27.715" style="fill:rgb(29,104,155);"/>
            </g>
            <g transform="matrix(4.16667,0,0,4.16667,790.235,526.004)">
                <path d="M0,27.913L2.138,27.913L5.662,20.153L22.014,20.153L25.537,27.913L27.794,27.913L14.887,0L12.907,0L0,27.913ZM6.533,18.292L13.858,2.257L21.143,18.292L6.533,18.292Z" style="fill:rgb(29,104,155);fill-rule:nonzero;"/>
            </g>
            <g transform="matrix(4.16667,0,0,4.16667,930.46,526.829)">
                <path d="M0,27.715L1.98,27.715L1.98,3.088L21.499,27.715L23.043,27.715L23.043,0L21.063,0L21.063,24.112L1.94,0L0,0L0,27.715Z" style="fill:rgb(29,104,155);fill-rule:nonzero;"/>
            </g>
            <g transform="matrix(4.16667,0,0,4.16667,1099.88,525.179)">
                <path d="M0,28.507C5.345,28.507 9.186,25.418 9.186,20.944L9.186,20.865C9.186,16.827 6.494,14.53 0.08,13.224C-6.493,11.878 -7.997,10.096 -7.997,7.166L-7.997,7.087C-7.997,4.197 -5.305,1.861 -1.227,1.861C1.822,1.861 4.435,2.732 7.048,4.989L8.354,3.365C5.543,1.109 2.891,0 -1.148,0C-6.295,0 -10.056,3.167 -10.056,7.285L-10.056,7.364C-10.056,11.561 -7.364,13.818 -0.712,15.164C5.583,16.431 7.127,18.133 7.127,21.063L7.127,21.142C7.127,24.31 4.276,26.646 0.119,26.646C-3.959,26.646 -6.77,25.339 -9.819,22.528L-11.165,24.072C-7.839,27.042 -4.434,28.507 0,28.507" style="fill:rgb(29,104,155);fill-rule:nonzero;"/>
            </g>
            <g transform="matrix(4.16667,0,0,4.16667,1166.36,526.829)">
                <path d="M0,27.715L2.059,27.715L2.059,20.667L8.948,13.699L20.351,27.715L23.043,27.715L10.413,12.234L22.528,0L19.717,0L2.059,18.213L2.059,0L0,0L0,27.715Z" style="fill:rgb(29,104,155);fill-rule:nonzero;"/>
            </g>
            <g transform="matrix(4.16667,0,0,4.16667,1284.32,526.829)">
                <path d="M0,27.715L19.915,27.715L19.915,25.814L2.059,25.814L2.059,14.689L17.935,14.689L17.935,12.788L2.059,12.788L2.059,1.9L19.717,1.9L19.717,0L0,0L0,27.715Z" style="fill:rgb(29,104,155);fill-rule:nonzero;"/>
            </g>
            <g transform="matrix(4.16667,0,0,4.16667,171.418,706.1)">
                <path d="M0,21.434L1.531,21.434L1.531,2.817L10.013,15.157L10.135,15.157L18.617,2.817L18.617,21.434L20.209,21.434L20.209,0L18.709,0L10.105,12.677L1.501,0L0,0L0,21.434Z" style="fill:rgb(29,104,155);fill-rule:nonzero;"/>
            </g>
            <g transform="matrix(4.16667,0,0,4.16667,-1357.34,-476.031)">
                <rect x="393.696" y="283.711" width="1.592" height="21.434" style="fill:rgb(29,104,155);"/>
            </g>
            <g transform="matrix(4.16667,0,0,4.16667,317.118,706.1)">
                <path d="M0,21.434L1.531,21.434L1.531,2.388L16.627,21.434L17.821,21.434L17.821,0L16.29,0L16.29,18.648L1.501,0L0,0L0,21.434Z" style="fill:rgb(29,104,155);fill-rule:nonzero;"/>
            </g>
            <g transform="matrix(4.16667,0,0,4.16667,417.91,706.1)">
                <path d="M0,21.434L15.402,21.434L15.402,19.964L1.593,19.964L1.593,11.36L13.871,11.36L13.871,9.89L1.593,9.89L1.593,1.47L15.249,1.47L15.249,0L0,0L0,21.434Z" style="fill:rgb(29,104,155);fill-rule:nonzero;"/>
            </g>
            <g transform="matrix(4.16667,0,0,4.16667,503.393,706.1)">
                <path d="M0,21.434L1.592,21.434L1.592,12.554L8.604,12.554L15.433,21.434L17.454,21.434L10.38,12.279C13.993,11.789 16.657,9.737 16.657,6.155L16.657,6.093C16.657,4.562 16.045,3.123 15.035,2.113C13.748,0.827 11.636,0 9.002,0L0,0L0,21.434ZM1.592,11.115L1.592,1.47L8.91,1.47C12.799,1.47 15.065,3.276 15.065,6.155L15.065,6.216C15.065,9.308 12.401,11.115 8.819,11.115L1.592,11.115Z" style="fill:rgb(29,104,155);fill-rule:nonzero;"/>
            </g>
            <g transform="matrix(4.16667,0,0,4.16667,587.981,681.475)">
                <path d="M0,27.344L1.654,27.344L4.379,21.342L17.025,21.342L19.75,27.344L21.496,27.344L11.513,5.757L9.982,5.757L0,27.344ZM5.053,19.903L10.717,7.502L16.351,19.903L5.053,19.903ZM10.105,3.613L11.483,3.613L14.759,0.858L12.953,0L10.105,3.613Z" style="fill:rgb(29,104,155);fill-rule:nonzero;"/>
            </g>
            <g transform="matrix(4.16667,0,0,4.16667,696.427,706.1)">
                <path d="M0,21.434L14.178,21.434L14.178,19.964L1.593,19.964L1.593,0L0,0L0,21.434Z" style="fill:rgb(29,104,155);fill-rule:nonzero;"/>
            </g>
            <g transform="matrix(4.16667,0,0,4.16667,775.402,706.1)">
                <path d="M0,21.434L1.531,21.434L1.531,2.388L16.627,21.434L17.821,21.434L17.821,0L16.29,0L16.29,18.648L1.501,0L0,0L0,21.434Z" style="fill:rgb(29,104,155);fill-rule:nonzero;"/>
            </g>
            <g transform="matrix(4.16667,0,0,4.16667,876.193,706.1)">
                <path d="M0,21.434L15.402,21.434L15.402,19.964L1.593,19.964L1.593,11.36L13.871,11.36L13.871,9.89L1.593,9.89L1.593,1.47L15.249,1.47L15.249,0L0,0L0,21.434Z" style="fill:rgb(29,104,155);fill-rule:nonzero;"/>
            </g>
            <g transform="matrix(4.16667,0,0,4.16667,1031.59,706.1)">
                <path d="M0,21.587L1.408,21.587L10.839,0L9.155,0L0.735,19.719L-7.655,0L-9.431,0L0,21.587Z" style="fill:rgb(29,104,155);fill-rule:nonzero;"/>
            </g>
            <g transform="matrix(4.16667,0,0,4.16667,1131.36,704.566)">
                <path d="M0,22.169C6.491,22.169 10.809,16.933 10.809,11.085L10.809,11.024C10.809,5.175 6.553,0 0.061,0C-6.43,0 -10.748,5.236 -10.748,11.085L-10.748,11.146C-10.748,16.995 -6.492,22.169 0,22.169M0.061,20.73C-5.236,20.73 -9.094,16.382 -9.094,11.085L-9.094,11.024C-9.094,5.726 -5.298,1.44 0,1.44C5.297,1.44 9.155,5.788 9.155,11.085L9.155,11.146C9.155,16.443 5.358,20.73 0.061,20.73" style="fill:rgb(29,104,155);fill-rule:nonzero;"/>
            </g>
            <g transform="matrix(4.16667,0,0,4.16667,1198.98,706.1)">
                <path d="M0,21.434L7.134,21.434C13.87,21.434 18.525,16.749 18.525,10.717L18.525,10.656C18.525,4.623 13.87,0 7.134,0L0,0L0,21.434ZM1.592,19.964L1.592,1.47L7.134,1.47C13.105,1.47 16.871,5.634 16.871,10.717L16.871,10.778C16.871,15.892 13.105,19.964 7.134,19.964L1.592,19.964Z" style="fill:rgb(29,104,155);fill-rule:nonzero;"/>
            </g>
            <g transform="matrix(4.16667,0,0,4.16667,1319.55,706.1)">
                <path d="M0,21.434L1.592,21.434L1.592,12.922L10.778,0L8.88,0L0.826,11.513L-7.196,0L-9.186,0L0,12.952L0,21.434Z" style="fill:rgb(29,104,155);fill-rule:nonzero;"/>
            </g>
        </g>
    </g>
</svg>
